<svg width="25" height="24" viewBox="0 0 25 24" fill="none" xmlns="http://www.w3.org/2000/svg">
<path fill-rule="evenodd" clip-rule="evenodd" d="M11.8325 1.89792C11.8324 1.89801 11.8327 1.89782 11.8325 1.89792L3.83366 5.89736L3.83255 5.89792C3.32288 6.15117 3.00045 6.67105 3.00005 7.24015V16.7636C2.99608 17.3335 3.31541 17.8564 3.82416 18.1132C3.82387 18.113 3.82445 18.1133 3.82416 18.1132L11.8237 22.1129C12.2462 22.3244 12.7438 22.3244 13.1663 22.113L21.1664 18.1129L21.1675 18.1124C21.6773 17.8591 21.9997 17.3391 22 16.7699V7.24042C21.9997 6.67121 21.6773 6.15121 21.1675 5.89792L21.1664 5.89736L13.1675 1.89792C13.1674 1.89782 13.1677 1.89801 13.1675 1.89792C12.7474 1.68935 12.2527 1.68934 11.8325 1.89792ZM11.3875 1.00238C12.0883 0.654153 12.9118 0.654153 13.6125 1.00238L13.6137 1.00293L21.6125 5.00238C21.6124 5.0023 21.6127 5.00247 21.6125 5.00238C22.4618 5.42464 22.9995 6.29138 23 7.23988V16.7701C22.9995 17.7186 22.4624 18.5853 21.6132 19.0076C21.613 19.0077 21.6134 19.0075 21.6132 19.0076L13.6138 23.0073C13.6138 23.0073 13.6138 23.0073 13.6138 23.0073C12.9097 23.3596 12.0806 23.3597 11.3764 23.0074C11.3764 23.0073 11.3765 23.0074 11.3764 23.0074L3.37644 19.0074L3.37506 19.0067C2.52685 18.5793 1.99413 17.7082 2.00005 16.7585V7.24015C2.00055 6.29169 2.53772 5.42496 3.38695 5.00268C3.38675 5.00278 3.38715 5.00258 3.38695 5.00268L11.3864 1.00294L11.3875 1.00238Z" fill="#414141"/>
<path fill-rule="evenodd" clip-rule="evenodd" d="M2.37321 5.93666C2.4967 5.68967 2.79704 5.58956 3.04403 5.71305L12.5004 10.4412L21.9568 5.71305C22.2038 5.58956 22.5041 5.68967 22.6276 5.93666C22.7511 6.18365 22.651 6.48398 22.404 6.60748L12.724 11.4475C12.5833 11.5179 12.4176 11.5179 12.2768 11.4475L2.59682 6.60748C2.34983 6.48398 2.24971 6.18365 2.37321 5.93666Z" fill="#414141"/>
<path fill-rule="evenodd" clip-rule="evenodd" d="M12.5 10.5C12.7761 10.5 13 10.7239 13 11V22.76C13 23.0361 12.7761 23.26 12.5 23.26C12.2239 23.26 12 23.0361 12 22.76V11C12 10.7239 12.2239 10.5 12.5 10.5Z" fill="#414141"/>
<path fill-rule="evenodd" clip-rule="evenodd" d="M7.0529 3.2765C7.17639 3.02951 7.47673 2.9294 7.72372 3.0529L17.7237 8.0529C17.9707 8.17639 18.0708 8.47673 17.9473 8.72372C17.8238 8.97071 17.5235 9.07082 17.2765 8.94732L7.2765 3.94732C7.02951 3.82383 6.9294 3.52349 7.0529 3.2765Z" fill="#414141"/>
</svg>
