<svg width="25" height="24" viewBox="0 0 25 24" fill="none" xmlns="http://www.w3.org/2000/svg">
<path fill-rule="evenodd" clip-rule="evenodd" d="M12.9546 4.25632C14.0799 3.13054 15.6064 2.49805 17.1982 2.49805C18.7899 2.49805 20.3164 3.13051 21.4416 4.25624C22.5674 5.38152 23.2 6.90816 23.2 8.49987C23.2 10.0916 22.5675 11.6181 21.4417 12.7434C21.4417 12.7435 21.4417 12.7434 21.4417 12.7434L12.6017 21.5834C12.4065 21.7787 12.0899 21.7787 11.8946 21.5834L3.05461 12.7434C0.710963 10.3998 0.710963 6.59997 3.05461 4.25632C5.39826 1.91267 9.19807 1.91267 11.5417 4.25632L12.2482 4.96277L12.9546 4.25632C12.9546 4.25629 12.9546 4.25635 12.9546 4.25632ZM17.1982 3.49805C15.8717 3.49805 14.5996 4.02515 13.6618 4.96334L12.6017 6.02343C12.508 6.11719 12.3808 6.16987 12.2482 6.16987C12.1156 6.16987 11.9884 6.11719 11.8946 6.02343L10.8346 4.96343C8.88149 3.0103 5.71484 3.0103 3.76172 4.96343C1.80859 6.91655 1.80859 10.0832 3.76172 12.0363L12.2482 20.5228L20.7346 12.0363C21.6728 11.0986 22.2 9.82636 22.2 8.49987C22.2 7.17338 21.6729 5.90126 20.7347 4.96351C19.7969 4.02532 18.5247 3.49805 17.1982 3.49805Z" fill="#414141"/>
</svg>
