<svg width="25" height="28" viewBox="0 0 25 28" fill="none" xmlns="http://www.w3.org/2000/svg">
<path fill-rule="evenodd" clip-rule="evenodd" d="M6.25 25C6.25 23.6193 7.36929 22.5 8.75 22.5C10.1307 22.5 11.25 23.6193 11.25 25C11.25 26.3807 10.1307 27.5 8.75 27.5C7.36929 27.5 6.25 26.3807 6.25 25ZM8.75 23.5C7.92157 23.5 7.25 24.1716 7.25 25C7.25 25.8284 7.92157 26.5 8.75 26.5C9.57843 26.5 10.25 25.8284 10.25 25C10.25 24.1716 9.57843 23.5 8.75 23.5Z" fill="#414141"/>
<path fill-rule="evenodd" clip-rule="evenodd" d="M18.25 25C18.25 23.6193 19.3693 22.5 20.75 22.5C22.1307 22.5 23.25 23.6193 23.25 25C23.25 26.3807 22.1307 27.5 20.75 27.5C19.3693 27.5 18.25 26.3807 18.25 25ZM20.75 23.5C19.9216 23.5 19.25 24.1716 19.25 25C19.25 25.8284 19.9216 26.5 20.75 26.5C21.5784 26.5 22.25 25.8284 22.25 25C22.25 24.1716 21.5784 23.5 20.75 23.5Z" fill="#414141"/>
<path fill-rule="evenodd" clip-rule="evenodd" d="M1.75 4.5C1.47386 4.5 1.25 4.72386 1.25 5C1.25 5.27614 1.47386 5.5 1.75 5.5H5.33051C6.08783 9.79147 6.85333 14.0643 7.49931 18.3709C7.68288 19.5947 8.73416 20.5 9.97165 20.5H20.1097C21.3014 20.5 22.3274 19.6588 22.5611 18.4903L24.0003 11.2942C24.186 10.366 23.476 9.5 22.5295 9.5H7.91046C7.6075 9.5 7.32797 9.58901 7.09436 9.74093L6.24239 4.91311C6.20023 4.67418 5.99262 4.5 5.75 4.5H1.75ZM7.416 11.0742C7.37065 10.7719 7.60478 10.5 7.91046 10.5H22.5295C22.845 10.5 23.0816 10.7887 23.0198 11.0981L21.5805 18.2942C21.4403 18.9953 20.8247 19.5 20.1097 19.5H9.97165C9.22916 19.5 8.59839 18.9568 8.48825 18.2225L7.416 11.0742Z" fill="#414141"/>
<rect x="12.6104" width="11.28" height="11" rx="4" fill="#FF6633"/>
<path d="M19.1304 9C19.0637 9 19.007 8.98 18.9604 8.94C18.9204 8.89333 18.9004 8.83667 18.9004 8.77V3.17L17.2404 4.45C17.1937 4.49 17.1437 4.51 17.0904 4.51C17.0304 4.51 16.9737 4.47667 16.9204 4.41L16.6604 4.08C16.627 4.03333 16.6104 3.98667 16.6104 3.94C16.6104 3.86 16.6437 3.79667 16.7104 3.75L18.8904 2.07C18.9637 2.02333 19.0504 2 19.1504 2H19.6604C19.727 2 19.7804 2.02333 19.8204 2.07C19.867 2.11 19.8904 2.16333 19.8904 2.23V8.77C19.8904 8.83667 19.867 8.89333 19.8204 8.94C19.7804 8.98 19.727 9 19.6604 9H19.1304Z" fill="white"/>
</svg>
