<svg width="39" height="32" viewBox="0 0 39 32" fill="none" xmlns="http://www.w3.org/2000/svg">
<path d="M4.27062 16.9258H34.7701C35.4096 16.9258 35.9295 17.4742 35.8738 18.1186C35.2054 25.7903 28.1391 31.8271 19.5214 31.8271C10.9036 31.8271 3.83736 25.7903 3.1689 18.1186C3.11114 17.4742 3.63105 16.9258 4.27062 16.9258Z" fill="#FF6633"/>
<path d="M25.0264 5.44656C25.3669 5.44656 25.7052 5.29225 25.926 4.99614C27.0401 3.5156 29.1568 2.59391 31.449 2.59391C33.7412 2.59391 35.8579 3.51352 36.972 4.99614C37.3496 5.49869 38.0593 5.59462 38.5545 5.21301C39.0517 4.83141 39.1466 4.11408 38.769 3.61361C37.2134 1.54503 34.4777 0.310547 31.449 0.310547C28.4203 0.310547 25.6846 1.54503 24.1269 3.61361C23.7494 4.11616 23.8463 4.83141 24.3415 5.21301C24.5478 5.37149 24.7871 5.44656 25.0264 5.44656Z" fill="#414141"/>
<path d="M1.17292 5.44656C1.51334 5.44656 1.85169 5.29225 2.07245 4.99614C3.18655 3.5156 5.30333 2.59391 7.59548 2.59391C9.88763 2.59391 12.0044 3.51352 13.1185 4.99614C13.4961 5.49869 14.2058 5.59462 14.7009 5.21301C15.1982 4.83141 15.2931 4.11408 14.9155 3.61361C13.3599 1.54503 10.6242 0.310547 7.59548 0.310547C4.56679 0.310547 1.83106 1.54503 0.27339 3.61361C-0.104165 4.11616 -0.00719547 4.83141 0.487959 5.21301C0.694273 5.37149 0.933593 5.44656 1.17292 5.44656Z" fill="#414141"/>
</svg>
